<?xml version="1.0" encoding="utf-8"?>
<!-- Generator: Adobe Illustrator 19.2.1, SVG Export Plug-In . SVG Version: 6.00 Build 0)  -->
<svg version="1.1" id="Layer_1" xmlns="http://www.w3.org/2000/svg" xmlns:xlink="http://www.w3.org/1999/xlink" x="0px" y="0px"
	 viewBox="0 0 358.3 105.8" style="enable-background:new 0 0 358.3 105.8;" xml:space="preserve">
<style type="text/css">
	.st0{fill:#313234;}
	.st1{fill:#ED1C24;}
	.st2{fill:#FFFFFF;}
</style>
<g>
	<g>
		<path class="st0" d="M313,32.1c-3.8-0.5-20.3-4.1-34.1,9.7C267.6,53.1,254.3,66,254.3,66h15.1c0,0,1.8-1.9,5.6-5.8h15.7l-1.4,5.8
			H305L313,32.1z M292.8,51.7h-9.5c0.5-0.5,1-1,1.5-1.5c9.4-10,10.9-9.3,10.9-9.3L292.8,51.7z"/>
		<path class="st0" d="M172.9,32.1c-3.8-0.5-20.3-4.1-34.1,9.7C127.5,53.1,114.2,66,114.2,66h15.1c0,0,1.8-1.9,5.6-5.8h15.7
			l-1.4,5.8h15.6L172.9,32.1z M152.7,51.7h-9.5c0.5-0.5,1-1,1.5-1.5c9.4-10,10.9-9.3,10.9-9.3L152.7,51.7z"/>
		<path class="st0" d="M227.8,31.8c-6.4,0-10.8,2.4-13.6,7.3l-5.4,9.6l-7.6-16.9l-2.9,0c-6.4,0-12.9,4.5-16,9.8L167.9,66h14.8
			l9.7-16.7l7.5,16.7h13.3l19.8-34.2L227.8,31.8z"/>
		<path class="st0" d="M108.6,31.1C89.9,31.1,78,40.7,73,49.4c-4.8,8.3-0.2,18.5,17.9,17.7c0,0,3.7,4.7,11.2,5
			c7.5,0.3,12.2-6.1,12.2-6.1s-2.6,0.9-5.3,0.5c-3.5-0.4-4.7-2.4-4.6-2.4c9.9-4.1,15.6-9.3,18.7-14.8
			C128,40.7,127.2,31.1,108.6,31.1 M104.9,49.2c-3.8,5.7-8.1,9.8-13.4,9.5c-6.4-0.3-4.5-5.1-1.2-9.6c4-5.5,9-10.3,14.4-10
			C111.1,39.4,108.7,43.6,104.9,49.2"/>
		<path class="st0" d="M245.1,31.8c-6.5,0-11.1,2.8-13.1,6.4l-1.7,2.8h14.7l-14.5,25h16.1L261.2,41l4.5-0.1c5.8,0,11.1-2.8,13.1-6.4
			l1.6-2.8L245.1,31.8z"/>
		<path class="st0" d="M337.9,42.6c11.6,3.2,16.7,6.1,16.1,11.4c-1,7.8-12.3,13.1-26.3,12.8c-14-0.3-20.5-5.1-20.5-5.1l8.7-7.1
			c0,0,6.1,3.2,14.4,3.4c5.3,0.1,6-1.2,6.1-1.5c0.3-1.1-1.1-1.5-4.8-2.7c-7.4-2.4-14.5-4.8-13.7-11.5c1-8,13.9-11.6,25.1-11.3
			c7.8,0.2,15.6,3,15.6,3c-3.1,5.6-8.4,6.2-10.4,6.2c-2.7,0-4.8-0.6-8.8-0.7c-3.3-0.1-4.4,1.3-3.8,2.1
			C335.7,42,336.3,42.2,337.9,42.6"/>
	</g>
	<polygon class="st1" points="0,0 0,77.8 84.6,77.8 	"/>
	<g>
		<path class="st2" d="M0,20.1c0,0.6,0.1,1.9,0.3,2.6c3.4,10.6,22.5,6.4,34.9,24.2c0,0,2.4,0.3,4-2.6c0,0-3.3-0.3-3.5-2.7
			c0,0,6.8,1.4,10.8,4.6c0,0,0.1,1.5-4.7,1.5c-0.9,0.1-1.3,0.1-2.8,1.6c0,0-3.8,4.1-7.6,4.1c-1.2,0-2.1-0.5-2.1-0.8
			c0,0-0.2-0.5,0.7-0.3c0,0,2.1,0.5,3-0.3c0,0-0.9-1.3-2.4-1.2c-0.9-0.1-1.9,0.3-2.5,1.1c0,0-3.1,3.8,5.7,7.9
			c12.7,5.5,19.7,13.7,18.7,15.8c0,0,0,0,0,0C51.3,74.5,41,61.7,23.2,60.2c0,0,0.1-0.3,0.2-0.6c1.9-8.9-2.3-14.9-7-18.3
			c-4.7-3.8-13.7-7-16.4-15.4V20.1z"/>
	</g>
	<g>
		<path class="st0" d="M171.1,95.8c0,1.9,1.4,3.3,3.3,3.3c2,0,3.2-1.5,3.2-3.1v-0.5c0-1.3-0.4-1.7-1.9-2.7l-4.4-2.8
			c-1.6-1.1-2.3-2.4-2.3-4.2c0-3,2-5.3,5.5-5.3c3.5,0,5.5,2.4,5.5,5.3v0.2c0,0.3-0.2,0.5-0.5,0.5h-1.3c-0.3,0-0.5-0.2-0.5-0.5v-0.4
			c0-1.7-1.1-3.1-3.2-3.1c-2.2,0-3.3,1.4-3.3,3.1V86c0,1.2,0.9,1.8,2.3,2.7l4.1,2.6c1.8,1.1,2.3,2.4,2.3,4.5c0,3.1-2.3,5.5-5.5,5.5
			c-3.1,0-5.5-2.4-5.5-5.1v-1.2c0-0.3,0.2-0.5,0.5-0.5h1.3c0.3,0,0.5,0.2,0.5,0.5V95.8z"/>
		<path class="st0" d="M192.2,96.4c0,3-1.9,4.7-3.8,4.7c-1.8,0-3.1-1-3.7-2.3v6.4c0,0.3-0.2,0.5-0.5,0.5h-1.1
			c-0.3,0-0.5-0.2-0.5-0.5v-19c0-0.3,0.2-0.5,0.5-0.5h1.1c0.3,0,0.5,0.2,0.5,0.5v1.3c0.6-1.2,1.8-2.3,3.7-2.3c1.9,0,3.8,1.6,3.8,4.7
			V96.4z M184.7,95.8c0,1.2,0.5,3.4,2.8,3.4c2.2,0,2.6-1.9,2.6-3.4v-5.1c0-1.5-0.4-3.4-2.6-3.4c-2.3,0-2.8,2.2-2.8,3.4V95.8z"/>
		<path class="st0" d="M195.2,81.4c0-0.3,0.2-0.5,0.5-0.5h1.4c0.3,0,0.5,0.2,0.5,0.5v1.3c0,0.3-0.2,0.5-0.5,0.5h-1.4
			c-0.3,0-0.5-0.2-0.5-0.5V81.4z M195.4,86.3c0-0.3,0.2-0.5,0.5-0.5h1.1c0.3,0,0.5,0.2,0.5,0.5v13.9c0,0.3-0.2,0.5-0.5,0.5h-1.1
			c-0.3,0-0.5-0.2-0.5-0.5V86.3z"/>
		<path class="st0" d="M209.5,89.9c0,0.3-0.2,0.5-0.5,0.5h-1.1c-0.3,0-0.5-0.2-0.5-0.5v-0.3c0-1.4-0.5-2.4-2.2-2.4
			c-1.7,0-2.4,1.1-2.4,2.4v10.5c0,0.3-0.2,0.5-0.5,0.5h-1.1c-0.3,0-0.5-0.2-0.5-0.5V86.3c0-0.3,0.2-0.5,0.5-0.5h1.1
			c0.3,0,0.5,0.2,0.5,0.5v1.1c0.9-1.3,2-2.1,3.6-2.1c1.8,0,3,1.5,3,3.3V89.9z"/>
		<path class="st0" d="M211.9,81.4c0-0.3,0.2-0.5,0.5-0.5h1.4c0.3,0,0.5,0.2,0.5,0.5v1.3c0,0.3-0.2,0.5-0.5,0.5h-1.4
			c-0.3,0-0.5-0.2-0.5-0.5V81.4z M212.1,86.3c0-0.3,0.2-0.5,0.5-0.5h1.1c0.3,0,0.5,0.2,0.5,0.5v13.9c0,0.3-0.2,0.5-0.5,0.5h-1.1
			c-0.3,0-0.5-0.2-0.5-0.5V86.3z"/>
		<path class="st0" d="M222.6,98.8c0.3,0,0.5,0.2,0.5,0.5v0.9c0,0.3-0.2,0.5-0.5,0.5H221c-2.2,0-3.6-1.4-3.6-3.6V81.4
			c0-0.3,0.2-0.5,0.5-0.5h1.1c0.3,0,0.5,0.2,0.5,0.5v4.8h3.1c0.3,0,0.5,0.2,0.5,0.5v0.9c0,0.3-0.2,0.5-0.5,0.5h-3.1v8
			c0,1.8,0.1,2.6,2.2,2.6H222.6z"/>
		<path class="st0" d="M230.4,96.3v-6.2c0-2.5,2.1-4.8,5-4.8c2.9,0,5,2.3,5,4.8v6.2c0,2.5-2.1,4.8-5,4.8
			C232.5,101.1,230.4,98.8,230.4,96.3z M232.5,90.2v6.2c0,1.6,1.3,2.9,2.9,2.9c1.6,0,2.9-1.3,2.9-2.9v-6.2c0-1.6-1.3-2.9-2.9-2.9
			C233.8,87.2,232.5,88.6,232.5,90.2z"/>
		<path class="st0" d="M243.3,84.3c0-1.9,1.3-3.3,3.6-3.3h1.5c0.3,0,0.5,0.2,0.5,0.5v0.9c0,0.3-0.2,0.5-0.5,0.5h-1.2
			c-1.6,0-1.9,0.6-1.9,2v1.6h3.1c0.3,0,0.5,0.2,0.5,0.5v0.9c0,0.3-0.2,0.5-0.5,0.5h-3.1v11.7c0,0.3-0.2,0.5-0.5,0.5h-1.1
			c-0.3,0-0.5-0.2-0.5-0.5V84.3z"/>
		<path class="st0" d="M263.8,81.3l5,18.7c0,0.1,0,0.2,0,0.2c0,0.2-0.3,0.4-0.6,0.4h-1.1c-0.2,0-0.4-0.2-0.4-0.5l-1.1-4.2h-6.8
			l-1.1,4.2c-0.1,0.2-0.2,0.5-0.4,0.5h-1.1c-0.3,0-0.6-0.2-0.6-0.4c0,0,0-0.1,0-0.2l5-18.7c0.1-0.2,0.2-0.4,0.4-0.4h2.3
			C263.6,80.9,263.8,81.1,263.8,81.3z M262.2,83.1l-2.9,10.8h5.7L262.2,83.1z"/>
		<path class="st0" d="M278.7,86.3c0-0.3,0.2-0.5,0.5-0.5h1.1c0.3,0,0.5,0.2,0.5,0.5v13.9c0,0.3-0.2,0.5-0.5,0.5h-1.1
			c-0.3,0-0.5-0.2-0.5-0.5v-1.3c-0.6,1.2-1.6,2.3-3.3,2.3c-2.2,0-4.2-1.6-4.2-4.7V86.3c0-0.3,0.2-0.5,0.5-0.5h1.1
			c0.3,0,0.5,0.2,0.5,0.5v9.5c0,1.5,0.4,3.4,2.6,3.4c2.3,0,2.8-2.2,2.8-3.4V86.3z"/>
		<path class="st0" d="M291.3,93.4c1.1,0.6,2,1.5,2,3.3c0,2.3-1.7,4.4-4.8,4.4c-3.1,0-5-2.1-5-4.6v-0.2c0-0.3,0.2-0.5,0.5-0.5h1
			c0.3,0,0.5,0.2,0.5,0.5v0.1c0,1.8,1.1,2.8,3,2.8c2.1,0,3-1.3,3-2.4c0-0.8-0.3-1.3-1.4-1.8l-4.1-2.1c-1.5-0.8-2.2-1.9-2.2-3.4
			c0-2.5,1.9-4.1,4.6-4.1c2.5,0,4.8,1.4,4.9,4c0,0.2,0,0.4-0.1,0.6c-0.1,0.2-0.2,0.5-0.4,0.5h-0.9c-0.3,0-0.5-0.2-0.5-0.5v-0.1
			c0-2.1-1.6-2.6-2.9-2.6c-1.4,0-2.8,0.6-2.8,2.1c0,0.9,0.4,1.4,1.3,1.8L291.3,93.4z"/>
		<path class="st0" d="M301.2,98.8c0.3,0,0.5,0.2,0.5,0.5v0.9c0,0.3-0.2,0.5-0.5,0.5h-1.6c-2.2,0-3.6-1.4-3.6-3.6V81.4
			c0-0.3,0.2-0.5,0.5-0.5h1.1c0.3,0,0.5,0.2,0.5,0.5v4.8h3.1c0.3,0,0.5,0.2,0.5,0.5v0.9c0,0.3-0.2,0.5-0.5,0.5h-3.1v8
			c0,1.8,0.1,2.6,2.2,2.6H301.2z"/>
		<path class="st0" d="M312.8,89.9c0,0.3-0.2,0.5-0.5,0.5h-1.1c-0.3,0-0.5-0.2-0.5-0.5v-0.3c0-1.4-0.5-2.4-2.2-2.4
			c-1.7,0-2.4,1.1-2.4,2.4v10.5c0,0.3-0.2,0.5-0.5,0.5h-1.1c-0.3,0-0.5-0.2-0.5-0.5V86.3c0-0.3,0.2-0.5,0.5-0.5h1.1
			c0.3,0,0.5,0.2,0.5,0.5v1.1c0.9-1.3,2-2.1,3.6-2.1c1.8,0,3,1.5,3,3.3V89.9z"/>
		<path class="st0" d="M321.1,91.4c1.1-0.5,1.5-1,1.5-1.8c0-1.4-0.8-2.4-2.6-2.4c-1.6,0-2.6,1-2.6,2.6v0.1c0,0.3-0.2,0.5-0.5,0.5
			h-1.1c-0.3,0-0.5-0.2-0.5-0.5v-0.3c0-2.4,2-4.2,4.8-4.2c3.1,0,4.5,2,4.5,4.5v10.3c0,0.3-0.2,0.5-0.5,0.5h-1.1
			c-0.3,0-0.5-0.2-0.5-0.5v-1.3c-0.7,1.2-2.3,2.1-4,2.1c-1.9,0-4-1.3-4-3.8c0-1.6,0.8-3.1,2.6-4L321.1,91.4z M318.3,94.7
			c-1.3,0.7-1.5,1.4-1.5,2.3c0,1.5,1.1,2.2,2.3,2.2c1.6,0,3.5-1,3.5-2.9v-3.7L318.3,94.7z"/>
		<path class="st0" d="M329.9,100.2c0,0.3-0.2,0.5-0.5,0.5h-1.1c-0.3,0-0.5-0.2-0.5-0.5V81.4c0-0.3,0.2-0.5,0.5-0.5h1.1
			c0.3,0,0.5,0.2,0.5,0.5V100.2z"/>
		<path class="st0" d="M333.1,81.4c0-0.3,0.2-0.5,0.5-0.5h1.4c0.3,0,0.5,0.2,0.5,0.5v1.3c0,0.3-0.2,0.5-0.5,0.5h-1.4
			c-0.3,0-0.5-0.2-0.5-0.5V81.4z M333.3,86.3c0-0.3,0.2-0.5,0.5-0.5h1.1c0.3,0,0.5,0.2,0.5,0.5v13.9c0,0.3-0.2,0.5-0.5,0.5h-1.1
			c-0.3,0-0.5-0.2-0.5-0.5V86.3z"/>
		<path class="st0" d="M344.7,91.4c1.1-0.5,1.5-1,1.5-1.8c0-1.4-0.8-2.4-2.6-2.4c-1.6,0-2.6,1-2.6,2.6v0.1c0,0.3-0.2,0.5-0.5,0.5
			h-1.1c-0.3,0-0.5-0.2-0.5-0.5v-0.3c0-2.4,2-4.2,4.8-4.2c3.1,0,4.5,2,4.5,4.5v10.3c0,0.3-0.2,0.5-0.5,0.5h-1.1
			c-0.3,0-0.5-0.2-0.5-0.5v-1.3c-0.7,1.2-2.3,2.1-4,2.1c-1.9,0-4-1.3-4-3.8c0-1.6,0.8-3.1,2.6-4L344.7,91.4z M341.9,94.7
			c-1.3,0.7-1.5,1.4-1.5,2.3c0,1.5,1.1,2.2,2.3,2.2c1.6,0,3.5-1,3.5-2.9v-3.7L341.9,94.7z"/>
	</g>
</g>
</svg>
