<?xml version="1.0" encoding="utf-8"?>
<!-- Generator: Adobe Illustrator 19.2.1, SVG Export Plug-In . SVG Version: 6.00 Build 0)  -->
<svg version="1.1" id="Layer_1" xmlns="http://www.w3.org/2000/svg" xmlns:xlink="http://www.w3.org/1999/xlink" x="0px" y="0px"
	 viewBox="0 0 783.7 178.4" style="enable-background:new 0 0 783.7 178.4;" xml:space="preserve">
<style type="text/css">
	.st0{fill:#385262;}
</style>
<g>
	<polygon class="st0" points="99.3,2.5 99.3,15.1 127.5,15.1 127.5,109.4 146.1,109.4 146.1,15.1 175.7,15.1 175.7,2.5 	"/>
	<g>
		<path class="st0" d="M268.1,110.7c-9.2,0-17.1-2.5-21.8-5.7l4.7-11.5c2.9,2.3,8.4,4.6,14.8,4.6c7.3,0,12.1-4.7,12.1-11.2
			c0-6.8-3.5-10-11.5-13.1c-14.9-5.8-18-14-18-22.3c0-12.7,10-23,25-23c8.8,0,15.3,2.2,20.5,5.6l-4.4,10.5c-2.4-1.9-7-4.5-12.6-4.5
			c-7.3,0-11.2,4.9-11.2,10.5c0,6.5,4.8,9.8,11.7,12.5c15.3,6.2,18.8,14.2,18.8,23.4C296.2,99.5,285.4,110.7,268.1,110.7"/>
		<path class="st0" d="M400.6,109.4V52.9c0-6.9-3.8-13-13.3-13c-5.4,0-9.5,1.8-13.1,5.5v64h-17.9V52.5c0-7.7-5.1-12.7-14.8-12.7
			c-5.3,0-8.2,0.8-11.7,2.2v67.4h-17.9V34.2c7.9-3.8,16.4-5.8,29.5-5.8c12.7,0,20,3.7,24.6,8.7c5.3-4.9,13.3-8.7,25.3-8.7
			c18.7,0,27.1,11.8,27.1,24.3v56.6H400.6z"/>
		<path class="st0" d="M554.3,109.4V53.1c0-6.5-2.9-13.3-14.2-13.3c-5.8,0-8.9,0.9-12.3,2.2v67.4H510V34.2
			c7.5-3.5,17.5-5.8,30.9-5.8c23.5,0,31.3,11.5,31.3,24.3v56.6H554.3z"/>
		<path class="st0" d="M589.8,29.9h17.8v79.5h-17.8V29.9z M598.7,17.8c-5.4,0-9.8-4-9.8-8.9c0-5,4.4-9,9.8-9c5.6,0,9.8,4,9.8,9
			C608.5,13.9,604.3,17.8,598.7,17.8"/>
		<path class="st0" d="M202.7,28.4c-12.5,0-21.9,3.6-27.1,6l4.1,10.3c4.8-2.4,12.1-4.9,19.8-4.9c9.2,0,15.6,2.8,15.6,13.1v4.3
			c-24,2.4-44,8.4-44,29.4c0,12.7,7.3,21.3,22,23.4c10.4,1.1,15.5-4.3,18.2-10.1c-2.1,0.5-4.4,0.9-6.8,0.9
			c-10.4,0-16.5-4.4-16.5-14.8c0-14.5,10.4-18.1,27.2-20.2v44.1c6.9-1,12.6-2.7,16.7-4.9V55.9C231.8,35.4,218.9,28.4,202.7,28.4"/>
		<path class="st0" d="M655.3,28.4c-12.4,0-22,3.6-27.1,6l4.1,10.3c4.8-2.4,12.1-4.9,19.7-4.9c9.2,0,15.6,2.8,15.6,13.1v4.3
			c-24,2.4-44,8.4-44,29.4c0,12.7,7.3,21.3,22,23.4c10.4,1.1,15.5-4.3,18.2-10.1c-2.1,0.5-4.4,0.9-6.8,0.9
			c-10.4,0-16.5-4.4-16.5-14.8c0-14.5,10.3-18.1,27.2-20.2v44.1c6.8-1,12.6-2.7,16.7-4.9V55.9C684.3,35.4,671.5,28.4,655.3,28.4"/>
		<path class="st0" d="M463.4,28.4c-12.4,0-21.9,3.6-27.1,6l4.1,10.3c4.8-2.4,12.1-4.9,19.7-4.9c9.2,0,15.7,2.8,15.7,13.1v4.3
			c-24,2.4-44,8.4-44,29.4c0,12.7,7.3,21.3,22,23.4c10.4,1.1,15.5-4.3,18.2-10.1c-2.1,0.5-4.4,0.9-6.9,0.9
			c-10.4,0-16.5-4.4-16.5-14.8c0-14.5,10.4-18.1,27.2-20.2v44.1c6.9-1,12.5-2.7,16.7-4.9V55.9C492.6,35.4,479.7,28.4,463.4,28.4"/>
	</g>
	<polygon class="st0" points="729.4,143.8 720.2,159 712.2,143.8 703.2,143.8 715.4,163.7 715.4,177.8 723.3,177.8 723.3,163.7 
		736.6,143.8 	"/>
	<polygon class="st0" points="628.4,143.9 628.4,167.5 607.2,143.9 601.9,143.9 601.9,177.8 608.2,177.8 608.2,154.2 629.6,177.8 
		634.8,177.8 634.8,143.9 	"/>
	<g>
		<path class="st0" d="M565.3,146c-4-1.9-7.5-2.7-11.8-2.7c-12.7,0-22.1,7.5-22.1,17.7c0,10.3,9.1,17.4,21.9,17.4
			c4.3,0,8.1-0.8,11.6-2.5l-2.1-4.2c-2.7,1.3-5.4,1.9-8.4,1.9c-9,0-14.6-5.5-14.6-12.8c0-7.6,5.8-12.7,14.3-12.7
			c3.1,0,5.3,0.6,8.5,2.1L565.3,146z"/>
		<path class="st0" d="M525.7,168.9c0-3.2-1.5-5.7-5.7-8.6c-3.5-2.5-4.2-3-6.1-4.4c-2.9-2.1-3.6-3.1-3.6-4.6c0-2.1,2-3.5,5.1-3.5
			c2.2,0,3.8,0.4,6.4,2l3.1-3.7c-3.2-1.9-6.4-2.8-10-2.8c-7.5,0-12.8,3.4-12.8,8.4c0,2.8,1.5,5,4.9,7.3c3.6,2.5,4.4,3,6.3,4.5
			c3,2.3,4.3,3.8,4.3,5.8c0,2.8-2.7,4.5-6.3,4.5c-2.7,0-5.1-0.8-8.1-2.7l-3,4.1c3.6,2.2,7.4,3.2,11.7,3.2
			C520,178.4,525.7,174.5,525.7,168.9"/>
	</g>
	<polygon class="st0" points="457.9,143.9 457.9,177.8 481.6,177.8 481.6,173.3 465.8,173.3 465.8,162.4 476.9,162.4 476.9,157.7 
		465.8,157.7 465.8,148.5 481.6,148.5 481.6,143.9 	"/>
	<polygon class="st0" points="440.5,143.9 440.5,156.9 423.9,156.9 423.9,143.9 416,143.9 416,177.8 423.9,177.8 423.9,161.5 
		440.5,161.5 440.5,177.8 448.4,177.8 448.4,143.9 	"/>
	<polygon class="st0" points="378.7,143.9 378.7,148.5 390.9,148.5 390.9,177.8 398.8,177.8 398.8,148.5 411,148.5 411,143.9 	"/>
	<polygon class="st0" points="309.7,143.9 309.7,167.5 288.4,143.9 283.1,143.9 283.1,177.8 289.5,177.8 289.5,154.2 310.8,177.8 
		316.1,177.8 316.1,143.9 	"/>
	<rect x="265.8" y="143.9" class="st0" width="7.9" height="33.9"/>
	<polygon class="st0" points="248.4,143.9 248.4,156.9 231.8,156.9 231.8,143.9 223.9,143.9 223.9,177.8 231.8,177.8 231.8,161.5 
		248.4,161.5 248.4,177.8 256.3,177.8 256.3,143.9 	"/>
	<g>
		<path class="st0" d="M90.2,176.3l0-13c-2.5-1.3-6.1-1.1-7.9-1.1l0,0v10.5c-2,0.6-3.3,0.8-5.2,0.8c-8.2,0-13.8-5.3-13.8-13
			c0-7.5,5.9-12.6,14.8-12.6c3,0,5.4,0.5,8.4,1.9l2.5-4c-3.8-1.8-7.3-2.7-11.7-2.7c-13.1,0-22.5,7.3-22.5,17.6
			c0,10.2,9.3,17.5,22,17.5C80.7,178.4,85.3,177.7,90.2,176.3"/>
		<path class="st0" d="M699.2,177.9h4.8l-10.2-15.2c4.6-2.3,6.9-5.5,6.9-9.6c0-3.1-1.4-5.6-4-7.3c-2.3-1.4-4.7-1.9-10.7-1.9h-11.6
			v33.9h7.9v-13.8h4.7l5.3,8.9C694.5,176.3,695.7,177.9,699.2,177.9 M690.9,158.2c-1.4,1.2-3,1.7-6.2,1.7h-2.4v-11.6h3
			c2.7,0,4.1,0.2,5.2,0.9c1.4,0.8,2.2,2.4,2.2,4.4C692.9,155.4,692.2,157.1,690.9,158.2"/>
		<path class="st0" d="M350.7,146.2c-3.6-1.5-6.3-2.3-14.3-2.3h-10.9v33.9h10.9c6.8,0,11-0.7,14.8-2.6c6.2-3,9.7-8.4,9.7-15.3
			C360.9,153.4,357.1,148.9,350.7,146.2 M347.9,170.8c-2.6,1.9-5.4,2.5-11.2,2.5h-3.2v-24.8h3.4c5,0,7.2,0.3,9.5,1.4
			c4,1.8,6,5.4,6,10.5C352.4,164.8,350.8,168.6,347.9,170.8"/>
		<path class="st0" d="M181.1,160.5c-1.5-0.6-2.9-1-5.2-1.1c5.4-1.4,8.1-4.1,8.1-8.1c0-2.7-1.4-4.8-4-6.1c-2.3-1.1-4.3-1.4-9.9-1.4
			h-11.7v33.9h11.3c5.3,0,8-0.4,10.6-1.6c3.8-1.7,6.1-4.7,6.1-8.2C186.4,164.7,184.5,161.9,181.1,160.5 M166.1,148.1h2.9
			c2.6,0,3.9,0.1,4.9,0.5c1.6,0.7,2.6,2,2.6,3.8c0,1.6-0.8,3-2.3,4.1c-1.5,1.1-3.3,1.5-6.3,1.5h-1.8V148.1z M175.8,172.4
			c-1.5,1-3.1,1.3-6.3,1.3h-3.3v-11.5h3.3c2.6,0,4.3,0.2,5.5,0.8c2.1,0.9,3.3,2.7,3.3,4.9C178.2,169.8,177.3,171.3,175.8,172.4"/>
		<path class="st0" d="M116.7,143.3c-11.8,0-20.1,7.2-20.1,17.3c0,10,7.7,17.8,19.7,17.8c12,0,19.7-7.9,19.7-17.9
			C136,150.7,127.7,143.3,116.7,143.3 M116.3,173.6c-8.2,0-11.2-6.7-11.2-12.7c0-5.9,3-12.8,11.1-12.8c7.1,0,11.3,4.8,11.3,12.8
			C127.5,168.8,123.1,173.6,116.3,173.6"/>
		<path class="st0" d="M750.9,167.5c14.8-4.4,19.3-5,32.8-6.6c-13.5-1.6-18-2.2-32.8-6.6l1.5,6.6L750.9,167.5z"/>
		<path class="st0" d="M32.8,167.5c-14.8-4.4-19.3-5-32.8-6.6c13.5-1.6,18-2.2,32.8-6.6l-1.5,6.6L32.8,167.5z"/>
	</g>
	<polygon class="st0" points="571.7,143.9 571.7,177.8 595.4,177.8 595.4,173.3 579.6,173.3 579.6,162.4 590.7,162.4 590.7,157.7 
		579.6,157.7 579.6,148.5 595.4,148.5 595.4,143.9 	"/>
	<polygon class="st0" points="644.3,143.9 644.3,177.8 668,177.8 668,173.3 652.2,173.3 652.2,162.4 663.3,162.4 663.3,157.7 
		652.2,157.7 652.2,148.5 668,148.5 668,143.9 	"/>
	<polygon class="st0" points="193.7,143.9 193.7,177.8 217.4,177.8 217.4,173.3 201.6,173.3 201.6,162.4 212.6,162.4 212.6,157.7 
		201.6,157.7 201.6,148.5 217.4,148.5 217.4,143.9 	"/>
</g>
</svg>
