<?xml version="1.0" encoding="utf-8"?>
<!-- Generator: Adobe Illustrator 19.2.1, SVG Export Plug-In . SVG Version: 6.00 Build 0)  -->
<svg version="1.1" id="Layer_1" xmlns="http://www.w3.org/2000/svg" xmlns:xlink="http://www.w3.org/1999/xlink" x="0px" y="0px"
	 viewBox="0 0 358.3 77.8" style="enable-background:new 0 0 358.3 77.8;" xml:space="preserve">
<style type="text/css">
	.st0{fill:#313234;}
	.st1{fill:#ED1C24;}
	.st2{fill:#FFFFFF;}
</style>
<g>
	<path class="st0" d="M313,32.1c-3.8-0.5-20.3-4.1-34.1,9.7C267.6,53.1,254.3,66,254.3,66h15.1c0,0,1.8-1.9,5.6-5.8h15.7l-1.4,5.8
		H305L313,32.1z M292.8,51.7h-9.5c0.5-0.5,1-1,1.5-1.5c9.4-10,10.9-9.3,10.9-9.3L292.8,51.7z"/>
	<path class="st0" d="M172.9,32.1c-3.8-0.5-20.3-4.1-34.1,9.7C127.5,53.1,114.2,66,114.2,66h15.1c0,0,1.8-1.9,5.6-5.8h15.7l-1.4,5.8
		h15.6L172.9,32.1z M152.7,51.7h-9.5c0.5-0.5,1-1,1.5-1.5c9.4-10,10.9-9.3,10.9-9.3L152.7,51.7z"/>
	<path class="st0" d="M227.8,31.8c-6.4,0-10.8,2.4-13.6,7.3l-5.4,9.6l-7.6-16.9l-2.9,0c-6.4,0-12.9,4.5-16,9.8L167.9,66h14.8
		l9.7-16.7l7.5,16.7h13.3l19.8-34.2L227.8,31.8z"/>
	<path class="st0" d="M108.6,31.1C89.9,31.1,78,40.7,73,49.4c-4.8,8.3-0.2,18.5,17.9,17.7c0,0,3.7,4.7,11.2,5
		c7.5,0.3,12.2-6.1,12.2-6.1s-2.6,0.9-5.3,0.5c-3.5-0.4-4.7-2.4-4.6-2.4c9.9-4.1,15.6-9.3,18.7-14.8C128,40.7,127.2,31.1,108.6,31.1
		 M104.9,49.2c-3.8,5.7-8.1,9.8-13.4,9.5c-6.4-0.3-4.5-5.1-1.2-9.6c4-5.5,9-10.3,14.4-10C111.1,39.4,108.7,43.6,104.9,49.2"/>
	<path class="st0" d="M245.1,31.8c-6.5,0-11.1,2.8-13.1,6.4l-1.7,2.8h14.7l-14.5,25h16.1L261.2,41l4.5-0.1c5.8,0,11.1-2.8,13.1-6.4
		l1.6-2.8L245.1,31.8z"/>
	<path class="st0" d="M337.9,42.6c11.6,3.2,16.7,6.1,16.1,11.4c-1,7.8-12.3,13.1-26.3,12.8c-14-0.3-20.5-5.1-20.5-5.1l8.7-7.1
		c0,0,6.1,3.2,14.4,3.4c5.3,0.1,6-1.2,6.1-1.5c0.3-1.1-1.1-1.5-4.8-2.7c-7.4-2.4-14.5-4.8-13.7-11.5c1-8,13.9-11.6,25.1-11.3
		c7.8,0.2,15.6,3,15.6,3c-3.1,5.6-8.4,6.2-10.4,6.2c-2.7,0-4.8-0.6-8.8-0.7c-3.3-0.1-4.4,1.3-3.8,2.1
		C335.7,42,336.3,42.2,337.9,42.6"/>
</g>
<polygon class="st1" points="0,0 0,77.8 84.6,77.8 "/>
<g>
	<path class="st2" d="M0,20.1c0,0.6,0.1,1.9,0.3,2.6c3.4,10.6,22.5,6.4,34.9,24.2c0,0,2.4,0.3,4-2.6c0,0-3.3-0.3-3.5-2.7
		c0,0,6.8,1.4,10.8,4.6c0,0,0.1,1.5-4.7,1.5c-0.9,0.1-1.3,0.1-2.8,1.6c0,0-3.8,4.1-7.6,4.1c-1.2,0-2.1-0.5-2.1-0.8
		c0,0-0.2-0.5,0.7-0.3c0,0,2.1,0.5,3-0.3c0,0-0.9-1.3-2.4-1.2c-0.9-0.1-1.9,0.3-2.5,1.1c0,0-3.1,3.8,5.7,7.9
		c12.7,5.5,19.7,13.7,18.7,15.8c0,0,0,0,0,0C51.3,74.5,41,61.7,23.2,60.2c0,0,0.1-0.3,0.2-0.6c1.9-8.9-2.3-14.9-7-18.3
		c-4.7-3.8-13.7-7-16.4-15.4V20.1z"/>
</g>
</svg>
